<svg xmlns="http://www.w3.org/2000/svg" width="1200" height="760" viewBox="0 0 1200 760">
  <rect width="1200" height="760" fill="#f7f8f5"/>
  <text x="80" y="82" font-family="Arial, sans-serif" font-size="38" font-weight="700" fill="#1e2b24">Approach 3: bayonet twist lock</text>
  <text x="80" y="124" font-family="Arial, sans-serif" font-size="22" fill="#526158">Small lugs on the pot pass through notches, then twist under the shell. A stop ramp can also set insertion depth.</text>

  <rect x="140" y="230" width="920" height="56" rx="4" fill="#6f7f76"/>
  <path d="M474 286 H726 L696 604 H504 Z" fill="#d8dfd9" stroke="#5a665f" stroke-width="4"/>
  <rect x="430" y="340" width="78" height="34" rx="4" fill="#f2c94c" stroke="#806a17" stroke-width="3"/>
  <rect x="692" y="340" width="78" height="34" rx="4" fill="#f2c94c" stroke="#806a17" stroke-width="3"/>
  <path d="M420 312 H510 V344 H420 Z" fill="#26352e"/>
  <path d="M690 312 H780 V344 H690 Z" fill="#26352e"/>
  <path d="M408 414 C468 464 542 486 612 480 C680 474 736 440 788 392" fill="none" stroke="#2f5f8f" stroke-width="8" stroke-linecap="round"/>
  <polygon points="785,392 775,426 810,407" fill="#2f5f8f"/>
  <text x="824" y="426" font-family="Arial, sans-serif" font-size="26" font-weight="700" fill="#2f5f8f">push, twist, lock</text>

  <circle cx="600" cy="570" r="74" fill="none" stroke="#526158" stroke-width="4"/>
  <path d="M600 496 A74 74 0 0 1 674 570" fill="none" stroke="#2f5f8f" stroke-width="8"/>
  <polygon points="674,570 653,552 649,584" fill="#2f5f8f"/>
  <text x="523" y="674" font-family="Arial, sans-serif" font-size="22" fill="#526158">top view logic</text>

  <line x1="446" y1="358" x2="284" y2="440" stroke="#26352e" stroke-width="3"/>
  <text x="96" y="430" font-family="Arial, sans-serif" font-size="24" font-weight="700" fill="#26352e">pot lug</text>
  <text x="96" y="460" font-family="Arial, sans-serif" font-size="20" fill="#526158">positive retention</text>

  <rect x="96" y="636" width="1008" height="62" rx="8" fill="#e6ebe7"/>
  <text x="128" y="675" font-family="Arial, sans-serif" font-size="22" fill="#26352e">Best when pots must not lift out accidentally, but it adds print tolerance and user-action complexity.</text>
</svg>
